<mxfile host="drawio-plugin" modified="2023-06-27T13:47:22.003Z" agent="5.0 (X11; Linux x86_64) AppleWebKit/537.36 (KHTML, like Gecko) Chrome/104.0.5112.102 Safari/537.36" etag="4ntFlP_gwLRaMq9bZO7f" version="20.5.3" type="embed"><diagram id="23iRSUPoRavnBvh4doch" name="Page-1"><mxGraphModel dx="529" dy="359" grid="1" gridSize="10" guides="1" tooltips="1" connect="1" arrows="1" fold="1" page="1" pageScale="1" pageWidth="827" pageHeight="1169" background="#ffffff" math="1" shadow="0"><root><mxCell id="0"/><mxCell id="1" parent="0"/><mxCell id="2" value="&lt;font color=&quot;#000000&quot;&gt;Toy instance centers&lt;/font&gt;" style="rounded=0;whiteSpace=wrap;html=1;fillColor=#FFFFFF;strokeColor=#000000;" vertex="1" parent="1"><mxGeometry x="150" y="70" width="120" height="60" as="geometry"/></mxCell><mxCell id="3" value="&lt;font color=&quot;#000000&quot;&gt;E&lt;/font&gt;" style="rounded=0;whiteSpace=wrap;html=1;fillColor=#FFFFFF;strokeColor=#000000;" vertex="1" parent="1"><mxGeometry x="370" y="70" width="120" height="60" as="geometry"/></mxCell><mxCell id="4" value="" style="ellipse;whiteSpace=wrap;html=1;aspect=fixed;rounded=0;strokeColor=#006EAF;fontFamily=Helvetica;fontSize=12;fontColor=#ffffff;fillColor=#1ba1e2;" vertex="1" parent="1"><mxGeometry x="220" y="210" width="20" height="20" as="geometry"/></mxCell><mxCell id="5" value="" style="ellipse;whiteSpace=wrap;html=1;aspect=fixed;rounded=0;strokeColor=#2D7600;fontFamily=Helvetica;fontSize=12;fontColor=#ffffff;fillColor=#60a917;" vertex="1" parent="1"><mxGeometry x="280" y="210" width="20" height="20" as="geometry"/></mxCell><mxCell id="6" value="" style="ellipse;whiteSpace=wrap;html=1;aspect=fixed;rounded=0;strokeColor=#005700;fontFamily=Helvetica;fontSize=12;fontColor=#ffffff;fillColor=#008a00;" vertex="1" parent="1"><mxGeometry x="414" y="230" width="20" height="20" as="geometry"/></mxCell><mxCell id="7" value="" style="ellipse;whiteSpace=wrap;html=1;aspect=fixed;rounded=0;strokeColor=#001DBC;fontFamily=Helvetica;fontSize=12;fontColor=#ffffff;fillColor=#0050ef;" vertex="1" parent="1"><mxGeometry x="350" y="220" width="20" height="20" as="geometry"/></mxCell><mxCell id="8" value="" style="ellipse;whiteSpace=wrap;html=1;aspect=fixed;rounded=0;strokeColor=#3700CC;fontFamily=Helvetica;fontSize=12;fontColor=#ffffff;fillColor=#6a00ff;" vertex="1" parent="1"><mxGeometry x="220" y="260" width="20" height="20" as="geometry"/></mxCell><mxCell id="9" value="" style="ellipse;whiteSpace=wrap;html=1;aspect=fixed;rounded=0;strokeColor=#A50040;fontFamily=Helvetica;fontSize=12;fontColor=#ffffff;fillColor=#d80073;" vertex="1" parent="1"><mxGeometry x="280" y="260" width="20" height="20" as="geometry"/></mxCell><mxCell id="10" value="" style="ellipse;whiteSpace=wrap;html=1;aspect=fixed;rounded=0;strokeColor=#6F0000;fontFamily=Helvetica;fontSize=12;fontColor=#ffffff;fillColor=#a20025;" vertex="1" parent="1"><mxGeometry x="340" y="270" width="20" height="20" as="geometry"/></mxCell><mxCell id="11" value="" style="ellipse;whiteSpace=wrap;html=1;aspect=fixed;rounded=0;strokeColor=#B09500;fontFamily=Helvetica;fontSize=12;fontColor=#000000;fillColor=#e3c800;" vertex="1" parent="1"><mxGeometry x="404" y="280" width="20" height="20" as="geometry"/></mxCell><mxCell id="12" value="$$ v_i $$" style="endArrow=classic;html=1;rounded=0;fontFamily=Helvetica;fontSize=16;fontColor=#000000;strokeColor=#000000;labelBackgroundColor=none;" edge="1" parent="1"><mxGeometry x="0.2" y="14" width="50" height="50" relative="1" as="geometry"><mxPoint x="230" y="220" as="sourcePoint"/><mxPoint x="280" y="170" as="targetPoint"/><mxPoint as="offset"/></mxGeometry></mxCell></root></mxGraphModel></diagram></mxfile>